<?xml version="1.0" encoding="UTF-8" standalone="no"?>
<!DOCTYPE svg PUBLIC "-//W3C//DTD SVG 1.1//EN"
 "http://www.w3.org/Graphics/SVG/1.1/DTD/svg11.dtd">
<!-- Generated by graphviz version 13.1.0 (20250701.0955)
 -->
<!-- Title: src/driver_max6675.h Pages: 1 -->
<svg width="404pt" height="232pt"
 viewBox="0.00 0.00 404.00 232.00" xmlns="http://www.w3.org/2000/svg" xmlns:xlink="http://www.w3.org/1999/xlink">
<g id="graph0" class="graph" transform="scale(1 1) rotate(0) translate(4 228)">
<title>src/driver_max6675.h</title>
<!-- Node1 -->
<g id="Node000001" class="node">
<title>Node1</title>
<g id="a_Node000001"><a xlink:title="driver max6675 header file">
<polygon fill="#999999" stroke="#666666" points="328.25,-224 218.5,-224 218.5,-204 328.25,-204 328.25,-224"/>
<text xml:space="preserve" text-anchor="middle" x="273.38" y="-210.5" font-family="Helvetica,sans-Serif" font-size="10.00">src/driver_max6675.h</text>
</a>
</g>
</g>
<!-- Node2 -->
<g id="Node000002" class="node">
<title>Node2</title>
<g id="a_Node000002"><a xlink:href="driver__max6675__interface_8h.html" target="_top" xlink:title="driver max6675 interface header file">
<polygon fill="white" stroke="#666666" points="268.12,-168 142.62,-168 142.62,-136 268.12,-136 268.12,-168"/>
<text xml:space="preserve" text-anchor="start" x="150.62" y="-154.5" font-family="Helvetica,sans-Serif" font-size="10.00">interface/driver_max6675</text>
<text xml:space="preserve" text-anchor="middle" x="205.38" y="-142.5" font-family="Helvetica,sans-Serif" font-size="10.00">_interface.h</text>
</a>
</g>
</g>
<!-- Node1&#45;&gt;Node2 -->
<g id="edge1_Node000001_Node000002" class="edge">
<title>Node1&#45;&gt;Node2</title>
<g id="a_edge1_Node000001_Node000002"><a xlink:title=" ">
<path fill="none" stroke="#63b8ff" d="M254.38,-196.24C244.48,-187.51 232.46,-176.9 222.8,-168.37"/>
<polygon fill="#63b8ff" stroke="#63b8ff" points="251.8,-198.63 261.62,-202.62 256.43,-193.38 251.8,-198.63"/>
</a>
</g>
</g>
<!-- Node8 -->
<g id="Node000008" class="node">
<title>Node8</title>
<g id="a_Node000008"><a xlink:href="driver__max6675_8c.html" target="_top" xlink:title="driver max6675 source file">
<polygon fill="white" stroke="#666666" points="396.25,-162 286.5,-162 286.5,-142 396.25,-142 396.25,-162"/>
<text xml:space="preserve" text-anchor="middle" x="341.38" y="-148.5" font-family="Helvetica,sans-Serif" font-size="10.00">src/driver_max6675.c</text>
</a>
</g>
</g>
<!-- Node1&#45;&gt;Node8 -->
<g id="edge7_Node000001_Node000008" class="edge">
<title>Node1&#45;&gt;Node8</title>
<g id="a_edge7_Node000001_Node000008"><a xlink:title=" ">
<path fill="none" stroke="#63b8ff" d="M292.39,-196.22C304.91,-185.18 320.82,-171.14 331.05,-162.11"/>
<polygon fill="#63b8ff" stroke="#63b8ff" points="290.32,-193.38 285.13,-202.62 294.95,-198.63 290.32,-193.38"/>
</a>
</g>
</g>
<!-- Node3 -->
<g id="Node000003" class="node">
<title>Node3</title>
<g id="a_Node000003"><a xlink:href="driver__max6675__basic_8h.html" target="_top" xlink:title="driver max6675 basic include file">
<polygon fill="white" stroke="#666666" points="124.75,-100 0,-100 0,-68 124.75,-68 124.75,-100"/>
<text xml:space="preserve" text-anchor="start" x="8" y="-86.5" font-family="Helvetica,sans-Serif" font-size="10.00">example/driver_max6675</text>
<text xml:space="preserve" text-anchor="middle" x="62.38" y="-74.5" font-family="Helvetica,sans-Serif" font-size="10.00">_basic.h</text>
</a>
</g>
</g>
<!-- Node2&#45;&gt;Node3 -->
<g id="edge2_Node000002_Node000003" class="edge">
<title>Node2&#45;&gt;Node3</title>
<g id="a_edge2_Node000002_Node000003"><a xlink:title=" ">
<path fill="none" stroke="#63b8ff" d="M161.48,-130.74C140.29,-120.96 115.29,-109.42 95.69,-100.38"/>
<polygon fill="#63b8ff" stroke="#63b8ff" points="159.93,-133.88 170.47,-134.89 162.86,-127.52 159.93,-133.88"/>
</a>
</g>
</g>
<!-- Node5 -->
<g id="Node000005" class="node">
<title>Node5</title>
<g id="a_Node000005"><a xlink:href="driver__max6675__interface__template_8c.html" target="_top" xlink:title="driver max6675 interface template source file">
<polygon fill="white" stroke="#666666" points="268.12,-100 142.62,-100 142.62,-68 268.12,-68 268.12,-100"/>
<text xml:space="preserve" text-anchor="start" x="150.62" y="-86.5" font-family="Helvetica,sans-Serif" font-size="10.00">interface/driver_max6675</text>
<text xml:space="preserve" text-anchor="middle" x="205.38" y="-74.5" font-family="Helvetica,sans-Serif" font-size="10.00">_interface_template.c</text>
</a>
</g>
</g>
<!-- Node2&#45;&gt;Node5 -->
<g id="edge4_Node000002_Node000005" class="edge">
<title>Node2&#45;&gt;Node5</title>
<g id="a_edge4_Node000002_Node000005"><a xlink:title=" ">
<path fill="none" stroke="#63b8ff" d="M205.38,-124.31C205.38,-116.12 205.38,-107.38 205.38,-100.22"/>
<polygon fill="#63b8ff" stroke="#63b8ff" points="201.88,-124.18 205.38,-134.18 208.88,-124.18 201.88,-124.18"/>
</a>
</g>
</g>
<!-- Node6 -->
<g id="Node000006" class="node">
<title>Node6</title>
<g id="a_Node000006"><a xlink:href="driver__max6675__read__test_8h.html" target="_top" xlink:title="driver max6675 read test header file">
<polygon fill="white" stroke="#666666" points="390.62,-100 286.12,-100 286.12,-68 390.62,-68 390.62,-100"/>
<text xml:space="preserve" text-anchor="start" x="294.12" y="-86.5" font-family="Helvetica,sans-Serif" font-size="10.00">test/driver_max6675</text>
<text xml:space="preserve" text-anchor="middle" x="338.38" y="-74.5" font-family="Helvetica,sans-Serif" font-size="10.00">_read_test.h</text>
</a>
</g>
</g>
<!-- Node2&#45;&gt;Node6 -->
<g id="edge5_Node000002_Node000006" class="edge">
<title>Node2&#45;&gt;Node6</title>
<g id="a_edge5_Node000002_Node000006"><a xlink:title=" ">
<path fill="none" stroke="#63b8ff" d="M246.74,-130.47C266.33,-120.75 289.33,-109.34 307.39,-100.38"/>
<polygon fill="#63b8ff" stroke="#63b8ff" points="245.32,-127.27 237.91,-134.85 248.43,-133.54 245.32,-127.27"/>
</a>
</g>
</g>
<!-- Node4 -->
<g id="Node000004" class="node">
<title>Node4</title>
<g id="a_Node000004"><a xlink:href="driver__max6675__basic_8c.html" target="_top" xlink:title="driver max6675 basic source file">
<polygon fill="white" stroke="#666666" points="124.75,-32 0,-32 0,0 124.75,0 124.75,-32"/>
<text xml:space="preserve" text-anchor="start" x="8" y="-18.5" font-family="Helvetica,sans-Serif" font-size="10.00">example/driver_max6675</text>
<text xml:space="preserve" text-anchor="middle" x="62.38" y="-6.5" font-family="Helvetica,sans-Serif" font-size="10.00">_basic.c</text>
</a>
</g>
</g>
<!-- Node3&#45;&gt;Node4 -->
<g id="edge3_Node000003_Node000004" class="edge">
<title>Node3&#45;&gt;Node4</title>
<g id="a_edge3_Node000003_Node000004"><a xlink:title=" ">
<path fill="none" stroke="#63b8ff" d="M62.38,-56.31C62.38,-48.12 62.38,-39.38 62.38,-32.22"/>
<polygon fill="#63b8ff" stroke="#63b8ff" points="58.88,-56.18 62.38,-66.18 65.88,-56.18 58.88,-56.18"/>
</a>
</g>
</g>
<!-- Node7 -->
<g id="Node000007" class="node">
<title>Node7</title>
<g id="a_Node000007"><a xlink:href="driver__max6675__read__test_8c.html" target="_top" xlink:title="driver max6675 read test source file">
<polygon fill="white" stroke="#666666" points="390.62,-32 286.12,-32 286.12,0 390.62,0 390.62,-32"/>
<text xml:space="preserve" text-anchor="start" x="294.12" y="-18.5" font-family="Helvetica,sans-Serif" font-size="10.00">test/driver_max6675</text>
<text xml:space="preserve" text-anchor="middle" x="338.38" y="-6.5" font-family="Helvetica,sans-Serif" font-size="10.00">_read_test.c</text>
</a>
</g>
</g>
<!-- Node6&#45;&gt;Node7 -->
<g id="edge6_Node000006_Node000007" class="edge">
<title>Node6&#45;&gt;Node7</title>
<g id="a_edge6_Node000006_Node000007"><a xlink:title=" ">
<path fill="none" stroke="#63b8ff" d="M338.38,-56.31C338.38,-48.12 338.38,-39.38 338.38,-32.22"/>
<polygon fill="#63b8ff" stroke="#63b8ff" points="334.88,-56.18 338.38,-66.18 341.88,-56.18 334.88,-56.18"/>
</a>
</g>
</g>
</g>
</svg>
