<?xml version="1.0" encoding="UTF-8" standalone="no"?>
<!DOCTYPE svg PUBLIC "-//W3C//DTD SVG 1.1//EN"
 "http://www.w3.org/Graphics/SVG/1.1/DTD/svg11.dtd">
<!-- Generated by graphviz version 13.1.0 (20250701.0955)
 -->
<!-- Title: max6675_basic_init Pages: 1 -->
<svg width="292pt" height="254pt"
 viewBox="0.00 0.00 292.00 254.00" xmlns="http://www.w3.org/2000/svg" xmlns:xlink="http://www.w3.org/1999/xlink">
<g id="graph0" class="graph" transform="scale(1 1) rotate(0) translate(4 250)">
<title>max6675_basic_init</title>
<!-- Node1 -->
<g id="Node000001" class="node">
<title>Node1</title>
<g id="a_Node000001"><a xlink:title="basic example init">
<polygon fill="#999999" stroke="#666666" points="102.25,-136 0,-136 0,-116 102.25,-116 102.25,-136"/>
<text xml:space="preserve" text-anchor="middle" x="51.12" y="-122.5" font-family="Helvetica,sans-Serif" font-size="10.00">max6675_basic_init</text>
</a>
</g>
</g>
<!-- Node2 -->
<g id="Node000002" class="node">
<title>Node2</title>
<g id="a_Node000002"><a xlink:href="group__max6675__base__driver.html#ga4ca8db0a0591db40dcc702f453a5c4e3" target="_top" xlink:title="initialize the chip">
<polygon fill="white" stroke="#666666" points="248,-246 174.25,-246 174.25,-226 248,-226 248,-246"/>
<text xml:space="preserve" text-anchor="middle" x="211.12" y="-232.5" font-family="Helvetica,sans-Serif" font-size="10.00">max6675_init</text>
</a>
</g>
</g>
<!-- Node1&#45;&gt;Node2 -->
<g id="edge1_Node000001_Node000002" class="edge">
<title>Node1&#45;&gt;Node2</title>
<g id="a_edge1_Node000001_Node000002"><a xlink:title=" ">
<path fill="none" stroke="#63b8ff" d="M58.85,-136.22C71.85,-155.15 102.34,-195.68 138.25,-217 145.74,-221.44 154.27,-224.86 162.77,-227.49"/>
<polygon fill="#63b8ff" stroke="#63b8ff" points="161.82,-230.86 172.39,-230.11 163.66,-224.11 161.82,-230.86"/>
</a>
</g>
</g>
<!-- Node3 -->
<g id="Node000003" class="node">
<title>Node3</title>
<g id="a_Node000003"><a xlink:href="group__max6675__interface__driver.html#ga04a41fae7bdd0b9be35fbea6e52958df" target="_top" xlink:title="interface print format data">
<polygon fill="white" stroke="#666666" points="276.12,-208 146.12,-208 146.12,-176 276.12,-176 276.12,-208"/>
<text xml:space="preserve" text-anchor="start" x="154.12" y="-194.5" font-family="Helvetica,sans-Serif" font-size="10.00">max6675_interface_debug</text>
<text xml:space="preserve" text-anchor="middle" x="211.12" y="-182.5" font-family="Helvetica,sans-Serif" font-size="10.00">_print</text>
</a>
</g>
</g>
<!-- Node1&#45;&gt;Node3 -->
<g id="edge2_Node000001_Node000003" class="edge">
<title>Node1&#45;&gt;Node3</title>
<g id="a_edge2_Node000001_Node000003"><a xlink:title=" ">
<path fill="none" stroke="#63b8ff" d="M72.38,-136.42C89.65,-145.11 115.27,-157.57 138.25,-167 142.08,-168.57 146.05,-170.13 150.07,-171.67"/>
<polygon fill="#63b8ff" stroke="#63b8ff" points="148.74,-174.91 159.33,-175.1 151.18,-168.34 148.74,-174.91"/>
</a>
</g>
</g>
<!-- Node4 -->
<g id="Node000004" class="node">
<title>Node4</title>
<g id="a_Node000004"><a xlink:href="group__max6675__interface__driver.html#gad99340e31ea9445a34696a9e871f652d" target="_top" xlink:title="interface delay ms">
<polygon fill="white" stroke="#666666" points="284,-158 138.25,-158 138.25,-138 284,-138 284,-158"/>
<text xml:space="preserve" text-anchor="middle" x="211.12" y="-144.5" font-family="Helvetica,sans-Serif" font-size="10.00">max6675_interface_delay_ms</text>
</a>
</g>
</g>
<!-- Node1&#45;&gt;Node4 -->
<g id="edge3_Node000001_Node000004" class="edge">
<title>Node1&#45;&gt;Node4</title>
<g id="a_edge3_Node000001_Node000004"><a xlink:title=" ">
<path fill="none" stroke="#63b8ff" d="M102.55,-133.02C110.31,-134.1 118.5,-135.24 126.75,-136.39"/>
<polygon fill="#63b8ff" stroke="#63b8ff" points="126.12,-139.84 136.51,-137.75 127.08,-132.9 126.12,-139.84"/>
</a>
</g>
</g>
<!-- Node5 -->
<g id="Node000005" class="node">
<title>Node5</title>
<g id="a_Node000005"><a xlink:href="group__max6675__interface__driver.html#ga8575e1062ac8e19d6db12bb2e178e9bc" target="_top" xlink:title="interface spi bus deinit">
<polygon fill="white" stroke="#666666" points="269.38,-120 152.88,-120 152.88,-88 269.38,-88 269.38,-120"/>
<text xml:space="preserve" text-anchor="start" x="160.88" y="-106.5" font-family="Helvetica,sans-Serif" font-size="10.00">max6675_interface_spi</text>
<text xml:space="preserve" text-anchor="middle" x="211.12" y="-94.5" font-family="Helvetica,sans-Serif" font-size="10.00">_deinit</text>
</a>
</g>
</g>
<!-- Node1&#45;&gt;Node5 -->
<g id="edge4_Node000001_Node000005" class="edge">
<title>Node1&#45;&gt;Node5</title>
<g id="a_edge4_Node000001_Node000005"><a xlink:title=" ">
<path fill="none" stroke="#63b8ff" d="M102.55,-118.98C114.85,-117.27 128.21,-115.41 141.2,-113.6"/>
<polygon fill="#63b8ff" stroke="#63b8ff" points="141.56,-117.08 150.98,-112.23 140.6,-110.15 141.56,-117.08"/>
</a>
</g>
</g>
<!-- Node6 -->
<g id="Node000006" class="node">
<title>Node6</title>
<g id="a_Node000006"><a xlink:href="group__max6675__interface__driver.html#ga1179e7e7e17ccfa26cea4320b2a3ad9f" target="_top" xlink:title="interface spi bus init">
<polygon fill="white" stroke="#666666" points="278.38,-70 143.88,-70 143.88,-50 278.38,-50 278.38,-70"/>
<text xml:space="preserve" text-anchor="middle" x="211.12" y="-56.5" font-family="Helvetica,sans-Serif" font-size="10.00">max6675_interface_spi_init</text>
</a>
</g>
</g>
<!-- Node1&#45;&gt;Node6 -->
<g id="edge5_Node000001_Node000006" class="edge">
<title>Node1&#45;&gt;Node6</title>
<g id="a_edge5_Node000001_Node000006"><a xlink:title=" ">
<path fill="none" stroke="#63b8ff" d="M68.38,-115.58C85.28,-105.12 112.77,-89.15 138.25,-79 142.96,-77.12 147.93,-75.37 152.95,-73.76"/>
<polygon fill="#63b8ff" stroke="#63b8ff" points="153.95,-77.11 162.51,-70.87 151.93,-70.41 153.95,-77.11"/>
</a>
</g>
</g>
<!-- Node7 -->
<g id="Node000007" class="node">
<title>Node7</title>
<g id="a_Node000007"><a xlink:href="group__max6675__interface__driver.html#gaa8b9fb13b53d0039628338854196cbb5" target="_top" xlink:title="interface spi bus read command">
<polygon fill="white" stroke="#666666" points="269.38,-32 152.88,-32 152.88,0 269.38,0 269.38,-32"/>
<text xml:space="preserve" text-anchor="start" x="160.88" y="-18.5" font-family="Helvetica,sans-Serif" font-size="10.00">max6675_interface_spi</text>
<text xml:space="preserve" text-anchor="middle" x="211.12" y="-6.5" font-family="Helvetica,sans-Serif" font-size="10.00">_read_cmd</text>
</a>
</g>
</g>
<!-- Node1&#45;&gt;Node7 -->
<g id="edge6_Node000001_Node000007" class="edge">
<title>Node1&#45;&gt;Node7</title>
<g id="a_edge6_Node000001_Node000007"><a xlink:title=" ">
<path fill="none" stroke="#63b8ff" d="M60.03,-115.61C73.99,-97.93 104.72,-61.87 138.25,-41 140.27,-39.75 142.35,-38.54 144.49,-37.39"/>
<polygon fill="#63b8ff" stroke="#63b8ff" points="145.97,-40.57 153.43,-33.05 142.91,-34.27 145.97,-40.57"/>
</a>
</g>
</g>
</g>
</svg>
